<?xml version="1.0" encoding="UTF-8"?>
<svg id="_Шар_1" data-name="Шар_1" xmlns="http://www.w3.org/2000/svg" version="1.1" viewBox="0 0 718 595.28">
  <!-- Generator: Adobe Illustrator 29.2.1, SVG Export Plug-In . SVG Version: 2.1.0 Build 116)  -->
  <defs>
    <style>
      .st0 {
        fill: #070707;
      }

      .st1 {
        fill: #050505;
      }

      .st2 {
        fill: #2f2b2a;
      }

      .st3 {
        fill: #efc748;
      }

      .st4 {
        fill: #9bcee2;
      }

      .st5 {
        fill: #040404;
      }

      .st6 {
        fill: #302e2c;
      }

      .st7 {
        fill: #cbd742;
      }

      .st8 {
        fill: #d3632b;
      }

      .st9 {
        fill: #fbfbfb;
      }

      .st10 {
        fill: #628cc6;
      }

      .st11 {
        fill: #a12430;
      }

      .st12 {
        fill: #cb3b65;
      }

      .st13 {
        fill: #333131;
      }

      .st14 {
        fill: #fdfdfd;
      }
    </style>
  </defs>
  <path class="st13" d="M221.54,427.72h-.48c-6.54-3.1-8.89-9.11-7.32-16.07,1.21-5.39,5.35-8.41,1.76-13.98-2.78-4.3-8.59-7.44-8.36-13.24.1-2.53,1.55-5.35,3.37-7.06,1.16,7.8,10.12,9.46,14.39,14.51,5.19,6.15,4.91,14.12.44,20.57-2.84,4.09-5.91,5.1-5.21,11.05.18,1.51,1,2.8,1.41,4.22ZM218.9,424.24c-.1-1.45,0-3.08,0-4.56,0-2.35,3.9-5.84,5.23-7.72,5.5-7.72,4.15-16.97-3.72-22.33-.72-.49-1.7-.86-2.46-1.38-3.29-2.26-6.08-4.42-8.06-8.01-6.15,8.66,7.54,13.42,8.27,20.74.4,4-2.19,6.83-3.1,10.57-1.29,5.3-.38,10.01,3.94,13.53.4-.2-.11-.68-.12-.84Z"/>
  <path class="st0" d="M642.08,316.22v3.36c-1.72,4.93-8.9,5.22-10.67.23-2.5-7.03,8.07-10.65,10.67-3.59ZM639.6,320.69c3.58-3.86-2.32-9.51-5.8-5.68s2.06,9.72,5.8,5.68Z"/>
  <path class="st6" d="M288.47,309.15c0,.15-.42.39-.14.84,3.34,2.18,6.55,4.63,9.49,7.31,4.13,3.77,9.24,10.91,14.44,12.66,2.01.68,4.19.67,6.19,1.25,5.98,1.71,11.77,9.53,15.3,14.44,1.18,1.65,3.83,5.04,4.56,6.71,1.14,2.59-1.81,4.5-3.99,5.05-4.04,1.01-9.21.23-13.29-.48-5.9-1.03-9.75-3.33-15.89-1.82-3.11.76-6.22,2.25-9.44,2.79-11.21,1.88-20.09-4.45-28.25-11.16l-5.87,4.76c-.03.27-.12.33.15.47.55.29,1.35.45,2.01.84,5.88,3.43,2.21,8.79,2.63,14.16.66,8.56,9.8,12.53,10.56,21.82.43,5.27-2.41,8.64,2.04,12.83,2.14,2.02,4.54,3.44,6.13,6.1,4.32,7.22-5.54,5.75-9.65,5.09-8.87-1.43-22.9-5.64-29.71-11.55-4.19-3.63-6.33-8.82-10.68-12.35-3.55-2.87-7.48-4.04-11.39-6.12-4.46-2.37-8.84-5.49-11.51-9.85-2.72.13-5.43.49-8.16.37.18,4.22-.96,8.01-4.2,10.78-4.6,3.95-9.42,6.49-13.67,11.27-3.83,4.31-4.79,7.31-7.19,12.24-4.11,8.43-22.86,16.95-31.91,17.04-10.17.09-1.4-10.01-.3-14.22s-.85-4.13-2.57-6.92c-3.15-5.14.09-13.07,3.36-17.46,2.78-3.74,6.98-5.9,10.06-9.37,4.87-5.49,7.27-12.82,6.95-20.14-1.07-.7-3.12-3.97-4.12-4.27-.7-.21-1.75.03-2.56-.08-7.28-.97-12.03-4.59-18.57-6.37-6.36-1.73-11.16.14-17.2-.31-9.51-.71-23.22-9.48-30.46-15.59-6.66-5.62-8.82-10.91,2.87-10.06,2.23.16,4.41,1.01,6.7.7,2.67-.37,5.55-4.73,7.7-6.45,7.5-6.01,16.13-1.8,23.37-6.38,4.28-2.71,6.18-9.01,12.02-8.25.04-2.9.73-5.76,1.09-8.63-4.85-3.59-8.97-7.99-12.84-12.59-2.7-3.21-5-7.33-8.66-9.57-3-1.83-6.46-1.9-9.5-3.7-5.31-3.13-11.49-13.66-14.36-19.22-1.18-2.29-2.74-4.28.05-6.2,3.95-2.72,12.68-.43,17.06.85,3.22.94,7.85,3.22,10.97,3.42,4.2.26,8.78-1.83,12.96-2.15,10.45-.8,18.06,4.64,25.23,11.48.21.09.36,0,.55-.09.85-.39,2.71-2.9,3.86-3.35.25-.21.28-.33.12-.62-.11-.2-2.4-2.06-2.9-2.63-6.52-7.35-2.98-12.02-2.52-20.51.23-4.31-.04-9.12-1.08-13.31-1.23-4.97-3.82-8.02-3.73-13.56.13-7.75,5.59-23.84,11.4-29.13,6.78-6.18,7.78,8.02,10.56,11.28,1.87,2.19,2.79,1.4,5.22,1.74,7.46,1.05,11.13,14.15,11.47,20.43.36,6.86-.62,11.58,2.42,18.2,1.86,4.04,4.88,6.55,7.12,10.15.31.5.86,2,1.12,2.23.68.6,2.2,0,3.11-.01,1.99-.04,3.91.27,5.89.25-2.34-6.87,2.28-7.92,6.46-11.17,7.89-6.15,4.66-13.96,9.18-21.51,2.33-3.89,5.18-4.74,8.11-7.48,3.24-3.03,1.71-6.01,1.91-9.84.48-9.35,4.53-9.32,9.42-2.44,5.18,7.29,12.2,22.1,12.66,30.99.24,4.64-1.29,8.36-1.89,12.73-1.47,10.86,6.32,19.76,3.5,31.31-.15.61-.89,2.15-.88,2.47.01.4,4.14,5.28,4.48,5.36,1.67-.35,3.31-.94,5.02-1.13,2.81-.31,5.1-.14,8.01-.87,13.29-3.31,20.76-20.94,36.28-18.53,3.21.5,4.19,3.54,6.59,3.96,4.96.86,9.85-4.85,14.08-4.24,3.68.53,2.67,5.91,2.18,8.38-1.64,8.2-9.22,23.31-16.84,27.29-1.57.82-3.39,1.2-5.03,1.92-5.53,2.42-10.33,6.39-14.36,10.83-3.56,3.92-7.37,11.27-13.43,11.27h-5.88c-.05,1.87.06,3.76,0,5.63ZM208.59,234.21c-1.57-3.93-4.82-6.34-6.91-10-4.4-7.7-3.17-12.56-3.64-20.82-.32-5.64-3.8-18.27-10.51-19.23-1-.14-1.95.04-2.95-.17-4.61-.94-5.3-7.7-6.76-11.23-1.94-4.67-3.87-3.44-6.52-.16-5.11,6.34-10.61,22-9.19,30.01.4,2.24,1.33,3.44,2.04,5.4,2.17,5.97,2.79,11.81,2.45,18.16-.44,8.45-4.06,13.27,2.99,20.27.23.23,1.93,1.73,2.05,1.79.68.32,2.98-1.28,3.09-1.72.13-.51-.8-1.43-1.06-1.99-1.41-3.16.6-9.57.36-13.54-.35-5.58-3.35-8.88-2.87-14.63.34-4.1,4-14.2,7.45-16.53,3.77-2.54,4.45,3.89,5.46,6.02,1.6,3.4,3.25,1.49,5.73,2.9,2.8,1.59,4.77,6.97,5.08,10.03.21,2.08-.1,4.35.03,6.44.25,3.9,1.43,7.63,4.24,10.39l9.43-1.4ZM266.4,258.43c4.47-11.36-4.33-21.48-2.84-32.93.44-3.4,1.73-6.92,1.88-10.35.41-9.28-7.08-25.08-12.42-32.66-1.16-1.64-4.71-6.75-6.33-3.11-1.81,4.04.02,8.69-1.08,12.35-1.16,3.84-6.16,5.49-8.7,8.57-5.71,6.91-2.46,16.08-9.36,22.54-3.73,3.49-10.41,4.82-7.21,11.52,1.46-.08,3.91.89,5.19.81.31-.02,4.31-2.91,4.75-3.36,3.93-4.05,2.04-10.51,6.14-15.21,1.71-1.96,5.45-3.4,5.77-5.98.24-1.96-.89-10.16,2.93-9.43,2.25.43,5.37,5.96,6.46,7.95,2.84,5.19,6.29,12.77,5.97,18.75-.14,2.68-1.23,5.27-1.42,7.93-.37,5.38,2.78,10.15,2.9,15.51l7.39,7.12ZM197.79,236.13c-1.5-2.01-2.89-4.22-3.48-6.71-1.42-5.99.8-13.05-3.59-18.23-1.9-2.24-2.55-1.52-4.93-2.02-3.68-.77-3.37-7.64-5.33-8.6-.89-.44-2.03,1.03-2.53,1.67-3.24,4.11-6.31,13.19-5.5,18.36.21,1.36,1.34,3.17,1.79,4.68.81,2.74,1.15,5.95,1.03,8.8-.15,3.41-1.74,7.2-.2,10.28.15.3.65,1.42,1.01,1.33.96-.25,4.06-2.49,5.28-3.13,5.21-2.77,10.75-4.97,16.47-6.44ZM244.15,202.62c-1.22,1.26-.58,6.4-.78,8.21-.33,3.04-3.12,3.78-5.04,5.51-5.31,4.81-2.57,11.84-7.43,16.56-.91.88-2.35,1.61-3.36,2.39l9.48,2.99c7.5,2.83,14.32,7.1,20.63,11.99-.18-4.25-2.51-8.12-2.76-12.35s1.75-8.16,1.43-12.46c-.38-5.29-5.95-17.67-9.59-21.59-.55-.59-1.8-2.07-2.59-1.25ZM212.38,235.24c-52.24,2.07-82.99,58.25-58.61,104.24,15.84,29.87,45.28,39.05,76.84,27.87,32.23-11.41,69.26-43.64,52.56-81.44-12.02-27.2-39.41-51.92-70.78-50.68ZM103.7,239.56c-1.4.17-4.31.98-3.99,2.87,3.89,6.68,7.81,15.47,13.87,20.44,3.09,2.54,5.56,2.23,8.87,3.6,5.77,2.39,10.08,10.15,14.28,14.74.97,1.06,8.17,8.19,8.88,8.14.26-.15.27-.36.36-.59.44-1.18,1.73-5.42,1.88-6.54s-2.16-2.74-2.96-3.65c-2.14-2.44-5.04-7.17-7.87-8.44-1.52-.68-3.08-.69-4.65-1.59-3.11-1.78-6.85-7.93-8.51-11.15-.92-1.79-2.15-3.5.39-4.73,4.02-1.94,10.62,1.43,14.57,2.49,3.41.91,6.57-.78,9.94-1,4.73-.32,8.65,1.94,12.2,4.77.56,0,.84-.84,1.2-1.21.55-.58,3.25-3.02,3.25-3.47-1.54-1.84-3.7-3.66-5.66-5.15-3.94-2.99-9.11-5.88-14.13-6.25-7.38-.55-13.74,3.51-20.95,1.52-6.62-1.83-13.81-5.67-20.98-4.8ZM288.47,302.31c4.72.13,9.1.25,12.47-3.48,6.14-6.79,9.25-12.49,17.84-17.18,2.78-1.52,5.98-2.15,8.54-3.69,7.06-4.25,14.68-19.58,15.82-27.59.47-3.31.53-6.28-3.75-4.95-4.05,1.26-7.22,4.54-11.91,3.88-2.68-.37-3.58-3.43-6.61-3.95-5.88-1.01-13.85,3.01-18.25,6.72-8.32,7.03-10.46,11.13-22.43,12.59-2.42.29-5.12-.14-7.44,1.2l4.97,7.63c8.15,1.13,11.7-6.32,17.7-9.67,2.83-1.58,7.22-3.26,10.16-1.27.85.58,1.53,1.76,2.7,1.87,2.78.27,10.67-6.7,10.14.81-.38,5.4-5.79,15.99-10.64,18.62-1.3.71-2.8.99-4.13,1.63-2.75,1.32-5.57,3.8-7.64,6.03-2.43,2.63-4.09,6.58-8.03,6.96l.48,3.83ZM148.61,280.25c2.04-5.8,5.11-11.18,8.59-16.24.72-1.05,2.34-2.71,2.82-3.67.17-.34.07-.35-.11-.6-.98-1.37-5.75-3.69-7.45-4.07-5-1.14-9.16,1.8-13.69.74-3.5-.82-6.55-2.66-10.46-2.98-1.07-.09-4.77-.2-4.31,1.65.17.67,2.08,3.79,2.59,4.63,1.52,2.53,4.04,6.6,6.7,7.93,1.27.64,2.55.73,3.81,1.23,3.82,1.51,6.64,6.74,9.48,9.71.31.32,1.72,1.9,2.04,1.67ZM278.64,274.74c3.37,5.76,6.5,11.71,8.33,18.17.32,1.12.49,3.1.84,3.96.3.74,1.38.07,1.88-.18,1.99-.99,3.39-3.71,4.9-5.41,2.04-2.3,4.86-4.87,7.56-6.36,1.69-.94,3.65-1.37,5.21-2.22,4.25-2.33,8.59-11.25,9.56-15.87.18-.85.73-3.22-.13-3.73-1.34-.79-5.98,2.54-8.28,2.54-2.61,0-2.99-2.85-6.24-2.84-7.92.01-12.08,9.36-19.5,11.39-1.35.37-2.73.65-4.13.55ZM144.02,300.91c-.13-.2-1.2-.3-1.52-.29-2.88.18-5.39,4.64-7.45,6.48-7.98,7.15-17.68,1.57-25.66,8.17-2.5,2.06-4.74,6.07-8.16,6.47-2.89.33-11.58-1.97-13.49.06-1.29,1.37,1.82,4.62,2.81,5.58,5.73,5.53,19.63,14.22,27.3,16.11,6.42,1.59,11.45-.16,17.69.3,8.14.6,15.59,7.43,24.1,7.2l-6.87-10.51c-2.6-1.29-5.67-2.69-8.61-2.91-2.7-.2-5.46.63-8.15.47-5.91-.34-12.95-4.58-17.71-7.95-1.8-1.27-11.46-8.03-5.82-9.8,3.06-.96,6.39.75,9.08.2,1.52-.31,3.74-3.44,5.1-4.5,5.05-3.94,11.87-1.11,16.17-4.46.41-.32,1.11-.92,1.21-1.43.14-.74.22-8.8-.03-9.19ZM288,311.18l-1.67,7.59c-.06.29.06.48.21.7.41.6,2.68,2.18,3.38,2.86,2.38,2.29,4.6,5.74,7.86,6.77,3.75,1.18,4.72.5,7.95,3.57,1.73,1.65,6.34,7.47,7.24,9.55,1.75,4.04-5.32,3.89-7.54,3.7-3.19-.26-7.23-2.01-10.12-1.9-2.6.1-5.51,1.79-8.21,2.1-5.48.62-9.88-1.74-14.09-4.93-.84,1.18-3.77,3.19-4.33,4.28-.24.47.5.98.85,1.32,4.52,4.27,13.8,9.67,20.04,10.18,8.09.67,14.92-4.77,22.24-3.53,6.88,1.17,15.63,4.78,22.62,2.58,1.23-.39,3.44-1.52,2.87-3.11-.37-1.03-3.17-4.67-4-5.84-3.12-4.4-8.9-12.18-13.87-14.19-2.98-1.2-6.06-.96-9.08-2.43-3.82-1.87-5.79-4.82-8.66-7.65-4.27-4.21-8.64-8.34-13.68-11.62ZM151.73,338.52c-3.75-8.44-6.75-17.32-7.44-26.61-4.77,4.47-11.83,1.13-16.91,5.04-1.6,1.23-3.59,4.34-5.57,4.74-1.74.35-9.51-1.43-9.87.45-.29,1.53,4.91,5.39,6.13,6.28,4.61,3.37,12.19,8.14,17.95,8.43,2.76.14,5.52-.67,8.36-.44,2.59.21,4.95,1.24,7.35,2.13ZM311.68,343.97c.86-.89-1.31-3.48-1.9-4.33-1.76-2.55-5.43-7.36-8.28-8.51-1.24-.5-2.52-.44-3.77-.78-3.73-1.02-5.6-4.23-8.16-6.71-.51-.49-3.21-2.94-3.61-3.11-.42-.18-.31.18-.38.33-2.33,5.24-4.17,9.3-7.56,14.03-.59.82-4.08,4.88-4.16,5.2-.08.35.21.38.38.54,1.76,1.65,6.93,4.12,9.32,4.35,4.05.4,5.92-1.05,9.47-1.8,4.69-.99,8.06,1.21,12.6,1.56,1.34.1,5.12.19,6.05-.78ZM213.63,372.57c-.7.63,4.56,5.23,5.2,5.71,5.57,4.19,12.78,5.82,17.95,10.36,3.25,2.86,5.11,6.83,8.04,9.95,6.33,6.76,19.39,10.62,28.31,12.47,6.17,1.28,17.72,3.16,8.16-6-1.98-1.9-4.69-3.09-5.63-5.88-1.05-3.08.38-6.87.11-10.18-.74-9.07-9.86-12.96-10.56-21.81-.4-5,3.04-10.65-2.31-13.51-.41-.22-2.24-.99-2.56-.94-.21.03-2.83,1.91-2.93,2.1s.17,2.38.14,3c-.04.99-.42,2.13-.49,3.11-.47,7.56,6.65,9.76,7.2,16.77.18,2.24-.72,5.18.05,7.14s4.85,3.67,6.05,6.66c1.98,4.95-7,2.97-9.23,2.52-5.99-1.22-14.91-3.95-19.32-8.26-1.87-1.83-3.22-4.59-5.02-6.49-3.68-3.88-9.67-4.86-13.73-8.34-3.12.58-6.22,1.59-9.42,1.63ZM256.33,355.78l-9.43,5.56c-7.11,3.72-14.5,6.96-22.23,9.19,3.19,2.68,7.42,3.59,10.77,6.02,3.97,2.87,5.5,7.46,9.64,10.27,4.45,3.02,16.62,6.93,21.93,6.87,4.3-.05,1.78-2.84,0-4.58-1.24-1.21-3.04-2-3.77-3.67-1.03-2.37.06-5.35-.2-7.95-.56-5.55-6.69-8.56-7.19-14.39-.22-2.51.64-4.82.47-7.31ZM198.08,372.86c-.08.05-.82,1.16-1.25,1.51-4.11,3.37-8.13,5.48-10.99,10.35-1.07,1.83-1.53,3.89-2.83,5.57-3.23,4.19-12.74,8.57-17.98,8.89-8.29.5-.85-6.99-.83-9.94,0-1.4-1.31-2.02-1.88-3.16-1.8-3.57.69-9.11,3.08-11.94,1.96-2.32,4.77-3.61,6.57-6.14.48-.67,1.85-3,1.81-3.71-.03-.56-7.15-5.45-7.9-6.58-.11,9.08-3.64,16.65-10.31,22.66-1.36,1.23-3.11,2.29-4.43,3.48-4.28,3.87-9.03,13.17-6.08,18.77.72,1.37,2.21,2.2,2.81,3.66,2.16,5.23-3.65,9.77-4.43,14.23-.6,3.43,3.74,2.92,5.98,2.61,7.95-1.07,21.5-7.15,26.66-13.39,2.1-2.54,3.01-6.26,4.72-9.19,3.58-6.14,9.07-10.63,14.61-14.89,2.01-1.54,4.18-2.45,5.59-4.72s1.94-5.27,1.82-7.89c-1.01.35-4.09-.57-4.75-.19ZM196.83,372.57c-7.71-.9-15.06-3.75-21.7-7.67-1.02,1.67-1.72,3.39-3.02,4.91-1.66,1.94-4.02,3.07-5.63,4.92-2.1,2.4-3.96,6.47-3.46,9.7.27,1.75,2.5,2.54,2.39,5.04-.08,1.94-3.51,6.77-3.02,7.8.67,1.42,4.6.39,5.84.07,4.13-1.06,11.23-4.32,13.83-7.76,1.21-1.6,1.8-3.88,2.92-5.71,1.53-2.51,3.74-4.86,5.98-6.73,1.89-1.58,4.2-2.76,5.87-4.56Z"/>
  <path class="st5" d="M534.61,221.27v25.06c0,.41.5,2.39.65,2.95,1.14,4.21,3.61,6.83,8.11,7.24,8.86.82,11.83-3.65,12.35-11.87.48-7.62-.35-15.71,0-23.38h9.36c-.21,6.23.27,12.61,0,18.83s-1.31,12.58-6.12,16.9c-2.03,1.83-4.31,2.8-6.84,3.71,2.53,1.28,5.79,3.4,6.76,6.19,1.11,3.17.7,7.42.43,10.72h-9.12v-9.47c0-.27-.75-2.28-.95-2.65-2.3-4.19-9.39-4.14-13.44-5.75-14.81-5.91-9.58-26.07-10.56-38.48h9.36Z"/>
  <path class="st5" d="M399.78,263.71v4.2s-.33.36-.36.36h-26.15c-.51,0-2.21.99-2.62,1.45-.65.73-1.57,3.25-1.57,4.18v15.71h21.59v3.6h-21.59v14.75c0,4.95,5.98,10.91,10.92,10.91h19.55v4.8c-11.55-.68-26.76,2.87-35.27-7.07-2.83-3.31-4.13-7.46-4.55-11.76v-41.12s40.06,0,40.06,0Z"/>
  <polygon class="st5" points="455.92 201.6 455.92 207.6 435.77 207.6 435.77 261.31 426.41 261.31 426.41 207.6 406.26 207.6 406.26 201.6 455.92 201.6"/>
  <path class="st5" d="M463.84,323.41h-9.36c-.33-7.52.45-15.42,0-22.9-.48-7.91-3.1-12.63-11.84-11.84-4.17.38-7.04,2.51-8.38,6.5-.26.78-.89,3.2-.89,3.9v24.34h-9.36c.35-6.86-.47-14.17,0-20.98.97-13.98,11.21-20.22,24.56-18.32,11.78,1.68,14.83,10.31,15.27,20.94.25,6.09-.21,12.25,0,18.35Z"/>
  <path class="st5" d="M518.77,261.31h-9.36c-.33-7.52.45-15.42,0-22.9-.48-7.91-3.1-12.63-11.84-11.84-4.17.38-7.04,2.51-8.38,6.5-.26.78-.89,3.2-.89,3.9v24.34h-9.36c.35-6.86-.47-14.17,0-20.98.97-13.98,11.21-20.22,24.56-18.32,11.78,1.68,14.83,10.31,15.27,20.94.25,6.09-.21,12.25,0,18.35Z"/>
  <path class="st5" d="M627.21,323.41h-9.36c-.33-7.52.45-15.42,0-22.9-.48-7.91-3.1-12.63-11.84-11.84-4.17.38-7.04,2.51-8.38,6.5-.26.78-.89,3.2-.89,3.9v24.34h-9.36c.35-6.86-.47-14.17,0-20.98.97-13.98,11.21-20.22,24.56-18.32,11.78,1.68,14.83,10.31,15.27,20.94.25,6.09-.21,12.25,0,18.35Z"/>
  <path class="st5" d="M565.07,306.15h-29.51c.41,6.63,4.35,12.46,11.39,12.96,3.25.23,6.2-.66,9.34-1.23.36,1.42,1.3,2.27-.25,3.1-11.17,5.97-24.89.71-28.46-11.53-4.69-16.11,10.88-30.2,26.38-23.72,8.05,3.37,12.35,11.88,11.11,20.42ZM556.2,301.11c-.1-4.72-2.08-10.29-7.01-11.82-8.43-2.62-13.01,4.37-13.62,11.82h20.63Z"/>
  <polygon class="st5" points="518.53 263.71 518.53 283.37 527.65 283.37 527.65 288.16 518.53 288.16 518.53 323.65 509.66 323.65 509.66 288.16 500.3 288.16 500.3 283.37 509.66 283.37 509.66 263.71 518.53 263.71"/>
  <path class="st5" d="M496.89,286.3c.48,1.7.25,3.48.29,5.22-.16.18-2.93-1.82-3.35-2.04-2.93-1.56-7.38-2.57-10.69-2.28-5.87.51-9.49,5.75-3.64,9.65,5.16,3.45,12.64,3.96,16.72,9.18,2.58,3.3,2.59,8.36.34,11.84-5.24,8.12-18.71,6.59-26.7,4.3l-.51-5.24c.13-.14,2.98,1.54,3.43,1.72,4.42,1.76,14.72,2.3,17.29-2.7,3.88-7.54-9.81-9.69-14.25-12.08-5.01-2.69-8.22-7.72-6.04-13.48,2.91-7.68,15.26-8.55,21.98-6.53,1.86.56,3.4,1.61,5.12,2.44Z"/>
  <rect class="st1" x="406.74" y="283.37" width="9.36" height="40.04"/>
  <rect class="st1" x="461.68" y="221.27" width="9.36" height="40.04"/>
  <rect class="st1" x="570.11" y="283.37" width="9.36" height="40.04"/>
  <path class="st13" d="M141.89,294.88c-2.75-.53-5.58.26-8.08,1.4-3.97,1.81-6.65,5.28-10.93,6.58-7.5,2.28-14.3-.59-18.75-6.81-1.92-2.69-2.46-5.91-5.21-7.98-2.22-1.68-4.7-1.94-7.4-1.68-.2.02-.73.29-.49-.25.25-.58,2.26-2.02,2.9-2.38,6.42-3.66,12.91-1.03,17.86,3.69,1.02.97,1.76,2.24,2.88,3.12,6.48,5.06,14.1-4.16,21.29-1.62,2.6.92,4.79,3.5,5.93,5.94ZM139.5,293.44c-5.52-8.55-14.27.7-21.4-.07-4.01-.43-5.69-3.82-8.47-6.16-4.48-3.77-9.76-5.21-15.22-2.4l3.65,1.27c6.58,3.96,5.73,11.22,13.46,14.84,11.58,5.42,15.66-4.29,24.82-6.93,1.01-.29,2.12-.52,3.17-.55Z"/>
  <path class="st13" d="M211.94,174.51c-.21,2.22.98,4.51,2.2,6.31,2.89,4.25,7.59,6.09,10.22,10.64,3.88,6.71,2.45,14.43-2.71,19.98-2.14,2.3-4.9,3.41-6.07,6.65-.95,2.64-.59,5.12.18,7.74-5.24-2.31-7.46-8.21-6.4-13.71.77-4.03,2.58-5.97,4.37-9.29,4.34-8.03-5.9-12.46-6.36-19.79-.2-3.17,1.72-5.98,3.88-8.1.21-.21.2-.53.67-.4ZM213.86,222.95v-3.72c0-3.64,5.46-6.98,7.56-9.47,4.43-5.26,5.31-12.2,1.6-18.15-2.01-3.23-5.45-4.94-7.96-7.63-1.75-1.88-3.37-4.36-4.09-6.83l-1.61,2.34c-3,6.57,4.79,11.32,6.4,16.97,1.4,4.93-.93,6.37-2.99,10.17-2.9,5.37-3.87,11.85,1.08,16.31Z"/>
  <path class="st13" d="M343.65,323.41c.14.55-.11.39-.3.55-6.61,5.18-14.42,2.2-19.36-3.55-1.66-1.93-2.79-4.75-5.19-5.84-6.02-2.71-13.16,3.54-19.41.21-2.48-1.32-4-3.91-4.91-6.48,2.71.58,5.06.43,7.73-.31,4.27-1.19,7.47-4.31,11.89-5.14,8.3-1.56,15.51,3.2,18.64,10.73.59,1.42.89,3.08,1.52,4.47,1.67,3.68,5.48,5.4,9.4,5.35ZM340.05,324.13c-3.06-.54-5.71-2.79-7-5.59-2.37-5.14-2.37-8.81-7.8-12.35-10.57-6.9-16.67,2.66-26.37,3.76-.75.08-1.5,0-2.25.03,4.61,9.51,14.69.58,21.96,3.11,5.16,1.8,6.41,9.98,14.26,11.88,2.29.56,5.27.64,7.2-.84Z"/>
  <path class="st0" d="M548.52,381.08c-.14.44-1.59.46-2,.37-.29-.07-.38-.82-.4-1.09-.4-4.5.3-9.58,0-14.14.61-1.48,2.18-1.06,2.92.18,1.64,2.73,3.32,6.85,4.79,9.84.24.5.47,2.09.98,1.05l5.69-11.57c.43-.6,1.99-.39,2.29.13l.09,14.73c.28,1.36-2.37.93-2.37.5v-9.47l-4.91,9.59c-.45.4-1.9.44-2.26-.15l-4.82-9.69v9.71Z"/>
  <path class="st13" d="M274.56,256.51c.77-8.33,3.84-16.27,11.05-20.96,3.69-2.4,6.08-3.18,8.72-7.11,2.46-3.67,3.46-7.6,3.86-11.97.52.68.86,1.61,1.19,2.4,3.57,8.52,4.49,17.76-3.49,24.07-2.8,2.21-5.68,2.78-8.78,4.17-3.89,1.75-7.92,4.76-10.88,7.83-.24.24-1.31,1.95-1.67,1.56ZM298.79,221.27c-1.19,5.01-3.99,9.75-8.18,12.81-1.93,1.41-4.2,2.24-6.09,3.74-4.65,3.69-7.2,9.58-8.16,15.34,2.48-2.41,5.29-4.65,8.36-6.27,2.77-1.46,5.88-2.14,8.54-3.69,7.38-4.3,8.68-11.36,6.56-19.23l-1.02-2.69Z"/>
  <path class="st13" d="M114.79,369.45c5.15-5.34,12.96-9,20.52-8.4,2.42.19,4.74,1.26,7.19,1.44,5.49.4,10.75-1.53,14.97-4.94.66-.53,1.16-1.34,1.94-1.66-3.07,10.42-9.58,19.9-21.87,17.56-2.89-.55-5.53-2.12-8.35-2.93-4.66-1.33-9.58-1.59-14.39-1.08ZM118.39,368.01c3.09-.13,6.14.15,9.16.8,6.05,1.3,10.12,4.88,16.8,3.46,5.95-1.27,10.3-6.89,12.18-12.4-4.4,2.96-9.41,4.27-14.75,3.83-2.26-.19-4.52-1.23-6.72-1.43-5.74-.52-12.32,2.12-16.67,5.75Z"/>
  <path class="st13" d="M307.9,388.63c-1.9.42-3.78,1.05-5.71,1.37-6.7,1.11-13.69.41-18.27-5.09-4.85-5.82-3.82-14.08-8.3-20.23l-3.7-5.29c8.03,1.34,15.68,6.41,19.07,13.91.61,1.36.99,2.97,1.67,4.32,2.36,4.65,7.16,8.38,12.07,9.99,1.01.33,2.48.3,3.17,1.02ZM302.87,388.16c-.13-.13-2.75-1.23-3.34-1.58-6.8-4.12-7-7.39-10.12-13.86-2.6-5.38-8.54-9.41-14.12-11.18-.2.2,1.8,3.13,2.04,3.59.87,1.61,1.83,3.5,2.45,5.22,1.98,5.45,1.64,10.87,6.41,15.17,3.87,3.49,11.45,4.61,16.33,3.12.26-.08.74-.08.35-.48Z"/>
  <path class="st0" d="M586.18,380.84c-.18,1.07-2.19,1.12-2.4,0v-14.4c.03-1.3,1.45-1.31,2.33-.76l8.71,11.2v-10.67c0-1.08,2.35-1.29,2.63.25-.36,4.31.51,9.46.01,13.67-.19,1.58-1.47,2.08-2.65.96-2.68-2.52-5.31-7.38-7.91-10.31-.2-.22-.42-.53-.71-.61v10.67Z"/>
  <path class="st5" d="M573.65,263.77c6.36-.9,9.68,6.85,4.36,10.83-2.81,2.09-6.57,1.31-8.43-1.6-2.28-3.55-.13-8.63,4.08-9.23Z"/>
  <path class="st5" d="M410.28,263.77c6.36-.9,9.68,6.85,4.36,10.83-2.81,2.09-6.57,1.31-8.43-1.6-2.28-3.55-.13-8.63,4.08-9.23Z"/>
  <path class="st5" d="M465.22,201.67c6.36-.9,9.68,6.85,4.36,10.83-2.81,2.09-6.57,1.31-8.43-1.6-2.28-3.55-.13-8.63,4.08-9.23Z"/>
  <path class="st0" d="M473.43,404.22v-11.27c0-.14,2.44-.67,2.39.61l.02,14.15c-.04,1.3-1.38,1.17-2.36,1.01l-8.93-11.46v11.15c0,.54-2.45.64-2.39-.49l-.02-14.15c.02-1.34,1.8-1.42,2.54-.6l8.74,11.04Z"/>
  <path class="st0" d="M514.69,402.3v5.87c0,.78-2.4.78-2.4,0v-14.87s.37-.42.48-.48c.54-.25,7.01-.22,8.03-.12,3.73.37,5.36,3.35,3.9,6.77-.21.48-1.12,1.41-1.12,1.5,0,.14,1.19,1.39,1.37,2.45.13.77.21,4.6-.18,4.98-.45.46-2.17.51-2.17,0v-4.32c0-.61-1.19-1.8-1.8-1.8h-6.12ZM514.69,399.9h4.92c.2,0,1.64-.38,1.89-.51,1.21-.61,1.63-2.32.84-3.42-.21-.29-1.29-.87-1.53-.87h-6.12v4.8Z"/>
  <path class="st0" d="M481.35,368.01v3.84h7.32c1.16,0,1.16,2.64,0,2.64h-7.32v4.56h8.52c.8,0,1.63,2.33-.26,2.62-1.72.27-8.04.24-9.81,0-1.05-.14-1.02-.58-1.1-1.53-.29-3.39-.3-9.83,0-13.21.08-.88.09-1.45,1.08-1.56,3.02-.35,6.74.28,9.84.02,1.75.33.97,2.63,0,2.63h-8.28Z"/>
  <path class="st0" d="M570.11,368.01v3.84h7.56c1.16,0,1.16,2.64,0,2.64h-7.56v4.56h8.76c.8,0,1.63,2.33-.26,2.62-1.72.27-8.04.24-9.81,0-1.05-.14-1.02-.58-1.1-1.53-.29-3.39-.3-9.83,0-13.21.08-.88.09-1.45,1.08-1.56,3.02-.35,6.74.28,9.84.02,1.75.33.97,2.63,0,2.63h-8.52Z"/>
  <path class="st1" d="M513.91,365.67c5.16-.8,10.15,1.01,10.63,6.77.53,6.46-3.61,9.96-9.94,9.21-8.54-1-8.43-14.78-.69-15.98ZM516.09,367.83c-4.66.14-6.57,4.11-5.04,8.26,1.63,4.41,9.26,4.39,10.72-.4,1.35-4.43-.89-8-5.68-7.86Z"/>
  <path class="st0" d="M447.76,368.01v3.84h7.56c1.23,0,.88,2.64,0,2.64h-7.56v4.56h8.76c.56,0,1.56,2.29-.25,2.63-3.02-.3-6.91.44-9.81-.01-.62-.1-1.15-.34-1.11-1.05.46-4.41-.56-9.9,0-14.17.1-.78.29-.97,1.08-1.08,3-.4,6.93.28,10.04.06,1.06.31.94,2.59-.43,2.59h-8.28Z"/>
  <path class="st1" d="M486.51,338.28h8.16c.41,0,2.68,1.31,3.11,1.68,3.28,2.83,3.04,10.06-.47,12.7-2.32,1.75-7.28,2.07-10.09,1.69-.32-.04-1.07-.31-1.07-.61v-15.11c0-.07.28-.24.36-.36ZM488.55,351.95h4.2c.28,0,1.84-.51,2.2-.67,3.49-1.54,3.6-8.01.54-9.99-.19-.12-1.21-.61-1.31-.61h-5.64v11.27Z"/>
  <path class="st1" d="M427.85,365.97c.02-.08.37-.42.48-.48.92-.43,7.16-.12,8.4.23,6.4,1.8,6.7,12.09,1.21,14.88-.35.18-2.05.83-2.29.83h-7.44s-.36-.33-.36-.36v-15.11ZM430.25,379.04h5.16c.56,0,2.4-1.21,2.82-1.74,1.5-1.9,1.49-6.14-.06-7.98-.53-.63-2.48-1.56-3.24-1.56h-4.68v11.27Z"/>
  <path class="st0" d="M498.86,395.11v4.08h7.56c.78,0,.78,2.4,0,2.4h-7.56v4.8h8.76c.62,0,.87,2.4,0,2.4h-10.8c-.39,0-.58-1.2-.61-1.55-.28-3.05-.34-10.22,0-13.2.04-.32.31-1.31.6-1.31h10.8c.7,0,.7,2.4,0,2.4h-8.76Z"/>
  <path class="st0" d="M448.72,395.11v4.08h7.56c1.15,0,.86,2.4.24,2.4h-7.8v4.8h8.76c.77,0,1.06,2.4.24,2.4h-11.04s-.36-.33-.36-.36v-15.35s.33-.36.36-.36h10.8c.78,0,.78,2.4,0,2.4h-8.76Z"/>
  <path class="st0" d="M446.32,338.64c.24-.79,2.4-.77,2.4.24v5.87h8.64v-5.87c0-.7,2.18-1.48,2.59.29-.23,4.35.48,9.36.07,13.63-.22,2.28-2.65,1.71-2.65.7v-6.35h-8.64v6.59c0,.78-2.4.78-2.4,0v-15.11Z"/>
  <path class="st0" d="M531.49,375.2v5.4c0,1.1-2.32,1.7-2.63,0,.27-4.43-.38-9.3-.02-13.67.11-1.34.22-1.45,1.56-1.56,2-.17,7.12-.21,8.82.55,3.27,1.47,3.48,6.4.5,8.29-.38.24-2.28,1-2.6,1h-5.64ZM531.61,367.77c-.08.12-.36.29-.36.36v4.32s.33.36.36.36h5.04c.23,0,1.81-.64,2.03-.85,1.55-1.45.25-4.19-1.79-4.19h-5.28Z"/>
  <path class="st0" d="M434.03,392.77c1.79-.26,3.9-.16,5.57.54,1.05.44,3.6,2.13,2.77,3.48-.13.21-1.13.69-1.41.66-.58-.05-1.38-1.48-2.42-1.88-3.64-1.4-7.89.3-8.29,4.45-.42,4.41,2.14,7.1,6.59,6.59,2.2-.25,2.77-1.86,3.65-2.12,1.11-.33,2.14.77,1.62,1.87-.7,1.51-3.96,2.71-5.54,2.85-11.25,1.03-11.66-15.15-2.55-16.45Z"/>
  <path class="st0" d="M434.03,338.1c2.38-.32,6.92.05,8.18,2.49.6,1.15-.03,2.3-1.25,2.2-.58-.05-1.38-1.48-2.42-1.88-5.11-1.96-9.1,1.68-8.18,6.98.65,3.75,5.38,5.23,8.46,3.39.74-.44,2.36-2.61,3.31-1.01,1.37,2.3-4.17,4.16-5.79,4.29-10.98.86-11.37-15.23-2.31-16.45Z"/>
  <path class="st0" d="M466.72,377.84l5.06-11.37c.99-.72,2.63-.79,2.33.88-.22,1.22-1.89,4.52-2.48,5.93-1.22,2.94-2.5,5.97-3.95,8.76-.54.27-1.71.18-2-.43l-6.06-14.08c-.53-1.69,1.2-1.9,2.27-1.06l4.83,11.36Z"/>
  <path class="st0" d="M487.35,395.11v13.07c0,.74-2.64.98-2.64-.24v-12.83h-4.68c-.7,0-.7-2.4,0-2.4h11.99c.78,0,.78,2.4,0,2.4h-4.68Z"/>
  <path class="st0" d="M497.18,379.04h7.56c.94,0,1.72,2.17-.05,2.59-1.15.27-7.24.22-8.59.06-1.24-.15-1.46-.62-1.57-1.79-.38-4.17.3-8.94.03-13.18.33-2.03,2.62-1.34,2.62-.73v13.07Z"/>
  <path class="st0" d="M608.73,381.08c-.15.5-2.4.71-2.4-.24v-13.07h-4.68c-.78,0-.78-2.4,0-2.4h11.75c.7,0,.85,2.4.24,2.4h-4.56s-.36.33-.36.36v12.95Z"/>
  <path class="st0" d="M481.95,351.95c.36.11,1.03,2.19-.5,2.37-1.84.23-7.06.27-8.87.04-.41-.05-.73-.09-.95-.49l-.12-14.99c.1-.94,2.4-.87,2.4,0v13.07h8.04Z"/>
  <path class="st0" d="M464.08,338.88c.18-1.09,2.4-.6,2.4-.24v15.11c0,.78-2.4.78-2.4,0v-14.87Z"/>
  <path class="st13" d="M301.85,365.92c5.49-.16,4.55,8.89-1.04,7.14-3.92-1.23-3-7.02,1.04-7.14ZM301.12,367.34c-2.29.52-2.08,4.33.49,4.7,3.66.52,3.72-5.66-.49-4.7Z"/>
  <path class="st13" d="M112.56,215.57c5.77-1.06,5.99,8.07-.04,7.12-3.61-.57-3.75-6.42.04-7.12ZM112.8,216.77c-2.97.6-2.21,5.51,1.33,4.69,2.55-.59,2.15-5.4-1.33-4.69Z"/>
  <path class="st13" d="M311.92,369.26c4.52-.92,5.6,5.79,1.57,6.6-4.61.94-5.66-5.77-1.57-6.6ZM312.41,370.45c-2.72.35-2.23,4.29.18,4.29,3.01,0,2.72-4.66-.18-4.29Z"/>
  <path class="st13" d="M124.06,218.71c4.24-.13,4.48,6.67.16,6.79s-4.66-6.65-.16-6.79ZM123.35,220.12c-2.31.54-1.65,4.93,1.58,3.97,2.05-.61,1.68-4.73-1.58-3.97Z"/>
  <path class="st13" d="M321.04,375.25c2.99-.37,3.58,4.13,1.09,4.7-3.85.88-4.15-4.32-1.09-4.7ZM322.24,378.5c1.42-1.65-1.97-2.92-2.07-.77-.05,1.11,1.55,1.38,2.07.77Z"/>
  <path class="st6" d="M131.99,224.91c3.69-.84,4.27,4.19,1.04,4.64-2.92.4-3.6-4.05-1.04-4.64ZM133.68,226.36c-1.07-1.05-2.79.42-1.88,1.52,1.01,1.23,2.97-.45,1.88-1.52Z"/>
  <path class="st13" d="M139.19,231.62c2.94-.61,2.94,4.36,0,3.75-1.98-.41-1.98-3.35,0-3.75ZM139.97,232.78c-.08-.05-.89.21-.93.27-.75,1.2,1.91,1.85.93-.27Z"/>
  <path class="st6" d="M327.51,382.21c3.46-.8,3.19,4.55-.19,3.44-1.37-.45-1.33-3.09.19-3.44ZM327.94,383.36c-.48.14-.48,1.06,0,1.19,1.1.31,1.1-1.5,0-1.19Z"/>
  <path class="st13" d="M148.85,198.73c.26-.28,1.23.87,1.43,1.08,4.64,4.9,7.96,12.62,7.45,19.43-.16,2.1-1.04,4.17-1.2,6.23-.42,5.13.97,10.1,3.98,14.24.87,1.2,2.05,2.14,2.86,3.37-11.21-3.11-20.96-10.07-17.62-23.12.5-1.95,1.48-3.7,2.07-5.6,1.53-4.91,1.94-10.58,1.03-15.63ZM159.17,240.21c-.69-1.54-1.7-2.91-2.34-4.49-3.71-9.07.87-13.86-.65-21.89-.77-4.07-2.95-8.44-5.64-11.5.11,3.57-.14,7.17-.99,10.64-.81,3.28-2.62,6.26-3.06,9.65-1.16,8.92,4.82,14.82,12.69,17.59Z"/>
  <path class="st14" d="M218.9,424.24c.01.16.52.64.12.84-4.32-3.52-5.24-8.23-3.94-13.53.91-3.74,3.5-6.57,3.1-10.57-.73-7.32-14.43-12.08-8.27-20.74,1.98,3.59,4.77,5.75,8.06,8.01.75.52,1.74.89,2.46,1.38,7.87,5.36,9.22,14.61,3.72,22.33-1.33,1.87-5.23,5.37-5.23,7.72,0,1.47-.1,3.11,0,4.56Z"/>
  <path class="st9" d="M212.38,235.24c31.38-1.24,58.76,23.48,70.78,50.68,16.71,37.8-20.32,70.02-52.56,81.44-31.56,11.17-61,2-76.84-27.87-24.38-45.98,6.37-102.17,58.61-104.24ZM209.98,238.84c-31.36,1.88-57.05,27.56-60.85,58.35-4.03,32.66,17.55,69.27,52.63,71.3,38.64,2.23,97.41-37.64,78.13-81.44-12.27-27.86-37.87-50.13-69.9-48.2Z"/>
  <path class="st3" d="M208.59,234.21l-9.43,1.4c-2.81-2.76-3.99-6.5-4.24-10.39-.13-2.1.18-4.37-.03-6.44-.31-3.06-2.27-8.44-5.08-10.03-2.49-1.41-4.13.5-5.73-2.9-1.01-2.14-1.69-8.57-5.46-6.02-3.45,2.33-7.11,12.43-7.45,16.53-.48,5.74,2.53,9.04,2.87,14.63.25,3.98-1.76,10.39-.36,13.54.25.57,1.19,1.49,1.06,1.99-.11.45-2.41,2.05-3.09,1.72-.12-.06-1.82-1.56-2.05-1.79-7.05-7-3.43-11.82-2.99-20.27.33-6.36-.28-12.19-2.45-18.16-.71-1.95-1.64-3.16-2.04-5.4-1.42-8.01,4.08-23.67,9.19-30.01,2.65-3.29,4.58-4.52,6.52.16,1.46,3.53,2.15,10.28,6.76,11.23,1,.2,1.95.03,2.95.17,6.71.96,10.19,13.59,10.51,19.23.46,8.26-.76,13.12,3.64,20.82,2.09,3.66,5.33,6.06,6.91,10Z"/>
  <path class="st4" d="M288.47,302.31l-.48-3.83c3.95-.38,5.6-4.33,8.03-6.96,2.06-2.23,4.89-4.71,7.64-6.03,1.33-.64,2.83-.92,4.13-1.63,4.85-2.63,10.26-13.22,10.64-18.62.53-7.51-7.36-.55-10.14-.81-1.17-.11-1.85-1.3-2.7-1.87-2.94-1.99-7.33-.3-10.16,1.27-6,3.35-9.55,10.79-17.7,9.67l-4.97-7.63c2.32-1.34,5.03-.9,7.44-1.2,11.97-1.46,14.11-5.56,22.43-12.59,4.4-3.72,12.37-7.74,18.25-6.72,3.03.52,3.92,3.57,6.61,3.95,4.69.65,7.85-2.62,11.91-3.88,4.28-1.33,4.22,1.64,3.75,4.95-1.14,8.01-8.76,23.34-15.82,27.59-2.56,1.54-5.76,2.18-8.54,3.69-8.59,4.69-11.7,10.38-17.84,17.18-3.37,3.73-7.75,3.61-12.47,3.48Z"/>
  <path class="st7" d="M198.08,372.86c.66-.39,3.74.53,4.75.19.12,2.62-.42,5.64-1.82,7.89s-3.58,3.18-5.59,4.72c-5.54,4.26-11.03,8.74-14.61,14.89-1.71,2.93-2.62,6.65-4.72,9.19-5.17,6.24-18.71,12.32-26.66,13.39-2.25.3-6.58.82-5.98-2.61.78-4.46,6.59-9.01,4.43-14.23-.61-1.47-2.09-2.29-2.81-3.66-2.95-5.6,1.8-14.9,6.08-18.77,1.32-1.19,3.07-2.25,4.43-3.48,6.68-6.02,10.2-13.59,10.31-22.66.75,1.13,7.87,6.02,7.9,6.58.04.71-1.33,3.04-1.81,3.71-1.8,2.53-4.61,3.83-6.57,6.14-2.39,2.83-4.89,8.37-3.08,11.94.58,1.14,1.89,1.76,1.88,3.16-.02,2.96-7.45,10.45.83,9.94,5.23-.32,14.74-4.7,17.98-8.89,1.3-1.68,1.75-3.74,2.83-5.57,2.86-4.87,6.88-6.99,10.99-10.35.42-.35,1.16-1.46,1.25-1.51Z"/>
  <path class="st12" d="M266.4,258.43l-7.39-7.12c-.11-5.35-3.27-10.12-2.9-15.51.18-2.66,1.28-5.26,1.42-7.93.32-5.98-3.13-13.57-5.97-18.75-1.09-1.99-4.21-7.52-6.46-7.95-3.83-.73-2.69,7.47-2.93,9.43-.32,2.59-4.06,4.03-5.77,5.98-4.1,4.7-2.21,11.16-6.14,15.21-.44.45-4.44,3.34-4.75,3.36-1.28.08-3.73-.89-5.19-.81-3.2-6.7,3.48-8.03,7.21-11.52,6.9-6.46,3.65-15.62,9.36-22.54,2.54-3.08,7.54-4.72,8.7-8.57s-.72-8.3,1.08-12.35c1.63-3.64,5.18,1.46,6.33,3.11,5.34,7.58,12.83,23.38,12.42,32.66-.15,3.42-1.44,6.94-1.88,10.35-1.48,11.45,7.32,21.57,2.84,32.93Z"/>
  <path class="st3" d="M213.63,372.57c3.2-.04,6.3-1.06,9.42-1.63,4.06,3.48,10.05,4.47,13.73,8.34,1.81,1.9,3.15,4.66,5.02,6.49,4.42,4.31,13.34,7.04,19.32,8.26,2.23.46,11.22,2.43,9.23-2.52-1.2-2.99-5.25-4.65-6.05-6.66s.12-4.9-.05-7.14c-.55-7.01-7.67-9.22-7.2-16.77.06-.98.44-2.12.49-3.11.03-.62-.25-2.81-.14-3s2.73-2.07,2.93-2.1c.32-.05,2.15.72,2.56.94,5.35,2.86,1.92,8.51,2.31,13.51.7,8.85,9.82,12.74,10.56,21.81.27,3.31-1.16,7.1-.11,10.18.95,2.79,3.65,3.98,5.63,5.88,9.56,9.16-1.99,7.28-8.16,6-8.92-1.85-21.98-5.71-28.31-12.47-2.92-3.12-4.79-7.09-8.04-9.95-5.16-4.54-12.38-6.16-17.95-10.36-.64-.48-5.89-5.08-5.2-5.71Z"/>
  <path class="st10" d="M288,311.18c5.04,3.29,9.41,7.41,13.68,11.62,2.87,2.83,4.84,5.78,8.66,7.65,3.02,1.48,6.1,1.23,9.08,2.43,4.98,2.01,10.76,9.79,13.87,14.19.83,1.18,3.63,4.81,4,5.84.57,1.59-1.64,2.72-2.87,3.11-6.99,2.21-15.74-1.41-22.62-2.58-7.32-1.24-14.15,4.2-22.24,3.53-6.23-.52-15.52-5.92-20.04-10.18-.36-.34-1.1-.84-.85-1.32.56-1.08,3.49-3.1,4.33-4.28,4.21,3.19,8.61,5.55,14.09,4.93,2.71-.31,5.61-2,8.21-2.1,2.89-.11,6.93,1.64,10.12,1.9,2.22.18,9.29.34,7.54-3.7-.9-2.08-5.51-7.9-7.24-9.55-3.23-3.07-4.2-2.39-7.95-3.57-3.26-1.03-5.48-4.48-7.86-6.77-.7-.68-2.97-2.26-3.38-2.86-.15-.23-.27-.41-.21-.7l1.67-7.59Z"/>
  <path class="st4" d="M103.7,239.56c7.17-.87,14.36,2.97,20.98,4.8,7.21,1.99,13.56-2.07,20.95-1.52,5.03.37,10.2,3.27,14.13,6.25,1.96,1.49,4.11,3.3,5.66,5.15,0,.46-2.7,2.89-3.25,3.47-.36.38-.63,1.22-1.2,1.21-3.55-2.84-7.47-5.09-12.2-4.77-3.37.23-6.53,1.91-9.94,1-3.95-1.05-10.55-4.42-14.57-2.49-2.54,1.22-1.31,2.94-.39,4.73,1.66,3.22,5.4,9.37,8.51,11.15,1.57.9,3.13.9,4.65,1.59,2.83,1.27,5.73,6,7.87,8.44.8.91,3.1,2.55,2.96,3.65s-1.44,5.36-1.88,6.54c-.09.24-.1.44-.36.59-.71.05-7.91-7.08-8.88-8.14-4.19-4.59-8.51-12.36-14.28-14.74-3.31-1.37-5.78-1.06-8.87-3.6-6.06-4.97-9.98-13.77-13.87-20.44-.32-1.89,2.58-2.7,3.99-2.87Z"/>
  <path class="st8" d="M144.02,300.91c.24.39.17,8.45.03,9.19-.1.51-.8,1.11-1.21,1.43-4.3,3.35-11.12.51-16.17,4.46-1.35,1.06-3.58,4.18-5.1,4.5-2.69.55-6.02-1.16-9.08-.2-5.64,1.77,4.02,8.53,5.82,9.8,4.76,3.37,11.8,7.62,17.71,7.95,2.69.15,5.45-.67,8.15-.47,2.93.21,6.01,1.62,8.61,2.91l6.87,10.51c-8.51.22-15.96-6.6-24.1-7.2-6.24-.46-11.27,1.28-17.69-.3-7.67-1.89-21.58-10.58-27.3-16.11-.99-.96-4.1-4.21-2.81-5.58,1.91-2.03,10.6.27,13.49-.06,3.43-.39,5.67-4.4,8.16-6.47,7.98-6.59,17.67-1.02,25.66-8.17,2.06-1.84,4.57-6.3,7.45-6.48.32-.02,1.39.08,1.52.29Z"/>
  <path class="st12" d="M256.33,355.78c.16,2.49-.69,4.8-.47,7.31.5,5.83,6.63,8.84,7.19,14.39.26,2.61-.84,5.58.2,7.95.73,1.67,2.53,2.46,3.77,3.67,1.78,1.74,4.3,4.53,0,4.58-5.31.06-17.49-3.85-21.93-6.87-4.14-2.81-5.67-7.4-9.64-10.27-3.35-2.42-7.58-3.33-10.77-6.02,7.73-2.23,15.12-5.47,22.23-9.19l9.43-5.56Z"/>
  <path class="st8" d="M197.79,236.13c-5.73,1.47-11.26,3.67-16.47,6.44-1.22.65-4.31,2.88-5.28,3.13-.36.09-.86-1.03-1.01-1.33-1.53-3.08.06-6.87.2-10.28.12-2.85-.21-6.06-1.03-8.8-.45-1.51-1.58-3.32-1.79-4.68-.81-5.17,2.26-14.26,5.5-18.36.5-.64,1.64-2.11,2.53-1.67,1.96.95,1.65,7.83,5.33,8.6,2.39.5,3.04-.21,4.93,2.02,4.4,5.18,2.18,12.24,3.59,18.23.59,2.48,1.98,4.7,3.48,6.71Z"/>
  <path class="st3" d="M278.64,274.74c1.4.1,2.78-.18,4.13-.55,7.42-2.03,11.58-11.38,19.5-11.39,3.24,0,3.62,2.84,6.24,2.84,2.3,0,6.94-3.33,8.28-2.54.85.5.3,2.87.13,3.73-.96,4.62-5.31,13.54-9.56,15.87-1.56.86-3.52,1.29-5.21,2.22-2.69,1.49-5.51,4.06-7.56,6.36-1.51,1.7-2.91,4.42-4.9,5.41-.5.25-1.58.92-1.88.18-.35-.86-.52-2.84-.84-3.96-1.82-6.46-4.96-12.41-8.33-18.17Z"/>
  <path class="st10" d="M196.83,372.57c-1.67,1.8-3.98,2.98-5.87,4.56-2.24,1.87-4.46,4.22-5.98,6.73-1.12,1.83-1.71,4.11-2.92,5.71-2.59,3.44-9.7,6.7-13.83,7.76-1.24.32-5.17,1.34-5.84-.07-.49-1.03,2.93-5.86,3.02-7.8.11-2.5-2.12-3.29-2.39-5.04-.5-3.23,1.36-7.3,3.46-9.7,1.62-1.85,3.97-2.98,5.63-4.92,1.3-1.52,2-3.23,3.02-4.91,6.63,3.92,13.99,6.77,21.7,7.67Z"/>
  <path class="st4" d="M151.73,338.52c-2.39-.88-4.76-1.92-7.35-2.13-2.85-.23-5.6.58-8.36.44-5.76-.29-13.34-5.06-17.95-8.43-1.22-.89-6.42-4.75-6.13-6.28.35-1.88,8.13-.09,9.87-.45,1.98-.4,3.97-3.51,5.57-4.74,5.08-3.9,12.14-.56,16.91-5.04.69,9.29,3.69,18.18,7.44,26.61Z"/>
  <path class="st8" d="M311.68,343.97c-.93.96-4.71.88-6.05.78-4.54-.35-7.91-2.54-12.6-1.56-3.56.75-5.42,2.19-9.47,1.8-2.39-.23-7.57-2.7-9.32-4.35-.18-.17-.47-.2-.38-.54.08-.32,3.57-4.38,4.16-5.2,3.39-4.73,5.23-8.79,7.56-14.03.07-.15-.05-.51.38-.33.39.17,3.1,2.61,3.61,3.11,2.57,2.48,4.44,5.69,8.16,6.71,1.25.34,2.53.28,3.77.78,2.85,1.15,6.52,5.95,8.28,8.51.59.85,2.76,3.44,1.9,4.33Z"/>
  <path class="st10" d="M148.61,280.25c-.32.23-1.73-1.35-2.04-1.67-2.84-2.97-5.66-8.2-9.48-9.71-1.26-.5-2.54-.59-3.81-1.23-2.66-1.34-5.18-5.4-6.7-7.93-.5-.84-2.42-3.96-2.59-4.63-.47-1.85,3.24-1.74,4.31-1.65,3.91.32,6.95,2.15,10.46,2.98,4.53,1.06,8.7-1.88,13.69-.74,1.7.39,6.46,2.7,7.45,4.07.18.26.28.26.11.6-.48.96-2.1,2.62-2.82,3.67-3.48,5.05-6.55,10.43-8.59,16.24Z"/>
  <path class="st7" d="M244.15,202.62c.79-.82,2.03.66,2.59,1.25,3.63,3.92,9.2,16.3,9.59,21.59.31,4.3-1.69,8.19-1.43,12.46s2.57,8.1,2.76,12.35c-6.31-4.88-13.13-9.16-20.63-11.99l-9.48-2.99c1.01-.78,2.46-1.51,3.36-2.39,4.86-4.72,2.11-11.75,7.43-16.56,1.92-1.74,4.71-2.47,5.04-5.51.2-1.81-.44-6.95.78-8.21Z"/>
  <path class="st14" d="M139.5,293.44c-1.05.03-2.16.26-3.17.55-9.16,2.64-13.25,12.35-24.82,6.93-7.73-3.62-6.88-10.89-13.46-14.84l-3.65-1.27c5.46-2.81,10.74-1.37,15.22,2.4,2.78,2.34,4.46,5.73,8.47,6.16,7.14.77,15.89-8.48,21.4.07Z"/>
  <path class="st14" d="M213.86,222.95c-4.95-4.46-3.99-10.94-1.08-16.31,2.06-3.8,4.39-5.24,2.99-10.17-1.6-5.66-9.39-10.4-6.4-16.97l1.61-2.34c.72,2.47,2.34,4.95,4.09,6.83,2.5,2.69,5.95,4.41,7.96,7.63,3.71,5.95,2.82,12.89-1.6,18.15-2.1,2.49-7.56,5.83-7.56,9.47v3.72Z"/>
  <path class="st14" d="M340.05,324.13c-1.93,1.48-4.91,1.39-7.2.84-7.86-1.9-9.11-10.08-14.26-11.88-7.27-2.53-17.35,6.4-21.96-3.11.75-.02,1.5.05,2.25-.03,9.7-1.09,15.81-10.66,26.37-3.76,5.43,3.54,5.43,7.21,7.8,12.35,1.29,2.8,3.94,5.05,7,5.59Z"/>
  <path class="st14" d="M159.17,240.21c-7.86-2.78-13.85-8.67-12.69-17.59.44-3.39,2.25-6.37,3.06-9.65.86-3.47,1.1-7.07.99-10.64,2.7,3.07,4.87,7.44,5.64,11.5,1.52,8.03-3.06,12.83.65,21.89.65,1.58,1.65,2.95,2.34,4.49Z"/>
  <path class="st14" d="M298.79,221.27l1.02,2.69c2.12,7.87.82,14.93-6.56,19.23-2.66,1.55-5.77,2.23-8.54,3.69-3.07,1.62-5.88,3.86-8.36,6.27.96-5.76,3.52-11.64,8.16-15.34,1.89-1.5,4.16-2.34,6.09-3.74,4.19-3.05,6.99-7.79,8.18-12.81Z"/>
  <path class="st14" d="M118.39,368.01c4.35-3.63,10.92-6.27,16.67-5.75,2.21.2,4.47,1.25,6.72,1.43,5.34.44,10.34-.87,14.75-3.83-1.88,5.51-6.22,11.13-12.18,12.4-6.68,1.43-10.76-2.15-16.8-3.46-3.02-.65-6.07-.92-9.16-.8Z"/>
  <path class="st14" d="M302.87,388.16c.39.4-.09.4-.35.48-4.88,1.49-12.45.37-16.33-3.12-4.77-4.3-4.44-9.72-6.41-15.17-.62-1.72-1.58-3.61-2.45-5.22-.25-.46-2.24-3.4-2.04-3.59,5.58,1.77,11.52,5.8,14.12,11.18,3.13,6.46,3.32,9.73,10.12,13.86.58.35,3.21,1.45,3.34,1.58Z"/>
  <path class="st4" d="M301.12,367.34c4.21-.96,4.15,5.22.49,4.7-2.57-.37-2.79-4.17-.49-4.7Z"/>
  <path class="st3" d="M112.8,216.77c3.49-.71,3.88,4.1,1.33,4.69-3.54.82-4.3-4.09-1.33-4.69Z"/>
  <path class="st4" d="M312.41,370.45c2.9-.37,3.19,4.28.18,4.29-2.4,0-2.89-3.94-.18-4.29Z"/>
  <path class="st3" d="M123.35,220.12c3.26-.76,3.63,3.37,1.58,3.97-3.23.96-3.89-3.43-1.58-3.97Z"/>
  <path class="st4" d="M322.24,378.5c-.52.6-2.12.33-2.07-.77.1-2.15,3.49-.88,2.07.77Z"/>
  <path class="st3" d="M133.68,226.36c1.09,1.07-.87,2.75-1.88,1.52-.91-1.11.81-2.57,1.88-1.52Z"/>
  <path class="st3" d="M139.97,232.78c.99,2.11-1.68,1.46-.93.27.03-.06.85-.32.93-.27Z"/>
  <path class="st4" d="M327.94,383.36c1.1-.31,1.1,1.5,0,1.19-.48-.14-.48-1.06,0-1.19Z"/>
  <path class="st0" d="M637.88,315.02c1.55.33,1.82,3.38-.12,3.36-.1.09,1.45,1.86,1.2,2.39-1.87.43-1.76-1.1-2.76-2.16l-.12,2.16c-.34.04-1.68.06-1.68-.36v-5.4c1.03.14,2.53-.2,3.48,0ZM636.08,317.42c.6.1,1.36-.12,1.44-.84l-1.44-.36v1.2Z"/>
  <path class="st2" d="M209.98,238.84c32.03-1.92,57.64,20.34,69.9,48.2,19.29,43.81-39.49,83.68-78.13,81.44-35.07-2.03-56.66-38.63-52.63-71.3,3.8-30.79,29.49-56.47,60.85-58.35ZM210.22,240.04c-30.73,1.76-56.17,26.9-59.89,57.15-3.94,31.98,16.96,68.11,51.43,70.1,37.92,2.19,96.01-36.87,76.93-80.01-12.06-27.26-37.11-49.04-68.46-47.24Z"/>
  <path class="st11" d="M210.22,240.04c31.35-1.8,56.4,19.99,68.46,47.24,19.09,43.14-39.01,82.2-76.93,80.01-34.47-1.99-55.37-38.13-51.43-70.1,3.72-30.25,29.16-55.38,59.89-57.15ZM212.62,250.59c-41.48.65-78.23,56.57-47.09,90.81,26.55,29.2,79.17,24.33,101.32-7.84,26.49-38.49-13.35-83.61-54.22-82.97Z"/>
  <path class="st2" d="M212.62,250.59c40.88-.64,80.72,44.48,54.22,82.97-22.15,32.17-74.76,37.04-101.32,7.84-31.14-34.24,5.61-90.16,47.09-90.81ZM210.94,251.79c-39.24,2.22-74.46,55.13-45.17,88.17,26.78,30.21,81.42,24.43,102.03-10,22.6-37.74-18.18-80.36-56.86-78.17Z"/>
  <path class="st14" d="M210.94,251.79c38.68-2.19,79.45,40.43,56.86,78.17-20.61,34.43-75.25,40.21-102.03,10-29.29-33.04,5.93-85.95,45.17-88.17ZM194.37,259.2c-3.04.58-2.27,5.46,1.09,4.7,2.63-.59,1.96-5.28-1.09-4.7ZM209.25,260.18c-11.19,1.34-25.13,17.41-30.75,26.57-6.88,11.19-11.17,22.89-6.38,35.83,8.45,22.84,31.8,38.33,55.75,27.42,22.11-10.08,43.85-33.73,32.58-59.59-6.89-15.82-23.34-11.6-35.42-21.19-5.92-4.7-6.49-10.15-15.77-9.04ZM185.25,264c-2.98.68-2.94,6.24.9,6.44,4.99.26,4.69-7.71-.9-6.44ZM237.8,264.24c-4.53.67-3.86,7.48.64,7.36,4.92-.13,4.49-8.11-.64-7.36ZM248.59,268.57c-4.46.17-4.21,6.77.18,6.67s4.1-6.83-.18-6.67ZM178.05,271.92c-4.16.86-3.21,8.26,2,7.03,4.2-.99,3.19-8.11-2-7.03ZM256.27,275.51c-2.98.57-2.11,5.41,1.09,4.7,2.84-.63,2.07-5.31-1.09-4.7ZM162.71,312.92c-2.89.74-1.46,5.9,1.8,4.43,2.55-1.16,1.35-5.24-1.8-4.43ZM164.86,321.78c-3.21.73-2.91,6.19.66,6.44,5.33.37,4.8-7.67-.66-6.44ZM258.66,328.74c-5.2.82-3.09,9.41,2.31,6.87,3.48-1.63,1.92-7.54-2.31-6.87ZM170.38,331.14c-3.13.58-3.78,5.18-1.02,6.66,4.1,2.2,7.6-3.14,4.21-5.89-1.01-.82-1.89-1.02-3.19-.78ZM251.22,337.85c-3.87.8-3.1,7.04,1.12,6.65,4.55-.43,3.61-7.62-1.12-6.65ZM242.82,344.08c-2.73.62-1.99,4.83.64,4.74,3.42-.12,2.93-5.55-.64-4.74Z"/>
  <path class="st2" d="M209.25,260.18c9.29-1.11,9.85,4.34,15.77,9.04,12.08,9.58,28.53,5.36,35.42,21.19,11.26,25.86-10.47,49.51-32.58,59.59-23.94,10.92-47.3-4.58-55.75-27.42-4.79-12.94-.49-24.64,6.38-35.83,5.63-9.16,19.56-25.23,30.75-26.57ZM255.04,284.17c-5.15-5.1-13.38-5.91-19.95-8.23-3.99-1.4-7.73-3.34-11.02-6.01-5.66-4.58-5.85-9.47-14.61-8.6-15.79,1.58-35.06,30.21-37.74,44.76-3.69,20.03,15.46,42.68,34.9,46.02,20.06,3.44,46.86-16.7,53.49-35.12,3.58-9.95,2.82-25.01-5.06-32.83Z"/>
  <path class="st13" d="M170.38,331.14c1.3-.24,2.18-.04,3.19.78,3.39,2.75-.11,8.08-4.21,5.89-2.76-1.48-2.11-6.08,1.02-6.66ZM170.61,332.33c-2.45.56-2.3,4.37.21,4.74,3.82.57,3.62-5.61-.21-4.74Z"/>
  <path class="st13" d="M258.66,328.74c4.23-.67,5.79,5.24,2.31,6.87-5.41,2.54-7.52-6.05-2.31-6.87ZM261.04,334.12c2.27-2.28-1.47-6.05-3.65-3.29-2.01,2.55,1.56,5.39,3.65,3.29Z"/>
  <path class="st6" d="M237.8,264.24c5.13-.75,5.55,7.23.64,7.36-4.5.12-5.16-6.69-.64-7.36ZM237.79,265.44c-3.5.67-1.62,6.4,1.72,4.6,2.42-1.3.98-5.12-1.72-4.6Z"/>
  <path class="st6" d="M178.05,271.92c5.19-1.08,6.2,6.04,2,7.03-5.21,1.23-6.16-6.17-2-7.03ZM178.29,273.11c-2.55.59-2.15,5.4,1.33,4.69,2.97-.6,2.21-5.51-1.33-4.69Z"/>
  <path class="st13" d="M164.86,321.78c5.46-1.24,5.99,6.8.66,6.44-3.57-.24-3.87-5.71-.66-6.44ZM165.1,322.98c-1.52.45-1.81,3.15-.11,3.84,3.73,1.51,4.15-5.04.11-3.84Z"/>
  <path class="st13" d="M251.22,337.85c4.72-.97,5.67,6.22,1.12,6.65-4.22.4-4.99-5.85-1.12-6.65ZM251.46,339.04c-2.49.55-1.88,4.41.65,4.27,2.98-.17,2.52-4.96-.65-4.27Z"/>
  <path class="st6" d="M248.59,268.57c4.28-.16,4.57,6.56.18,6.67s-4.64-6.5-.18-6.67ZM248.57,269.77c-2.77.14-2.67,4.38.2,4.26s2.51-4.4-.2-4.26Z"/>
  <path class="st6" d="M185.25,264c5.59-1.27,5.9,6.7.9,6.44-3.84-.2-3.88-5.76-.9-6.44ZM185.49,265.2c-1.48.44-1.65,3.55.24,3.97,3.78.85,3.59-5.11-.24-3.97Z"/>
  <path class="st13" d="M162.71,312.92c3.14-.81,4.35,3.27,1.8,4.43-3.25,1.47-4.69-3.69-1.8-4.43ZM164.39,314.36c-.91-.92-2.91.23-1.73,1.61,1.06,1.24,2.76-.57,1.73-1.61Z"/>
  <path class="st6" d="M242.82,344.08c3.58-.81,4.07,4.62.64,4.74-2.64.09-3.37-4.12-.64-4.74ZM244.27,347.33c.97-.84-.19-2.94-1.52-1.88-1.2.96.34,2.91,1.52,1.88Z"/>
  <path class="st6" d="M194.37,259.2c3.04-.58,3.72,4.11,1.09,4.7-3.36.76-4.13-4.12-1.09-4.7ZM194.61,260.39c-1.38.2-1.19,2.43.16,2.36,1.68-.09,1.46-2.59-.16-2.36Z"/>
  <path class="st13" d="M256.27,275.51c3.16-.61,3.92,4.07,1.09,4.7-3.2.71-4.07-4.12-1.09-4.7ZM255.91,278.75c1.22,1.22,3.17-1.19,1.37-1.98-1.41-.62-2.17,1.18-1.37,1.98Z"/>
  <path class="st8" d="M255.04,284.17c7.89,7.81,8.64,22.88,5.06,32.83-6.62,18.42-33.43,38.56-53.49,35.12-19.44-3.34-38.59-25.99-34.9-46.02,2.68-14.55,21.95-43.18,37.74-44.76,8.77-.88,8.95,4.02,14.61,8.6,3.29,2.66,7.04,4.6,11.02,6.01,6.57,2.32,14.8,3.13,19.95,8.23ZM199.39,279.86c-3.66.12-8.14,6.88-9.79,9.83-7.12,12.72-8.36,26.57-.3,39.22,8.72,13.69,22.48,15.45,36.73,8.93,11.98-5.48,17.81-13.43,20.11-26.41,6.41-36.1-46.43-32.58-48.58-3.48-.39,5.24.87,17.59,5.92,20.46,7.08,4.02,20.98-3.68,25.08-9.85,3.19-4.8,2.99-11.42.23-16.4-4.33-7.81-19.92-2.98-18.73,5.3.16,1.1.98,2.22,2.19,2.02.76-.13,2.7-1.87,3.62-2.4,2.3-1.32,6.98-3.13,9.59-2.55,2.41.54,3.1,5.85,2.45,7.86-.84,2.59-5.72,5.91-8.21,6.9-12.39,4.91-15.75-12.16-12.34-20.73,4.11-10.32,19.67-14.05,27.51-5.59,5.46,5.89,2.96,14.73.54,21.4-4.67,12.83-10.94,25-26.7,23.93-20.52-1.39-21.37-33.42-13.5-47.08,1.19-2.06,6.24-7.87,6.39-9.46.1-1.14-1.15-1.93-2.2-1.89Z"/>
  <path class="st4" d="M170.61,332.33c3.83-.87,4.02,5.3.21,4.74-2.5-.37-2.66-4.18-.21-4.74Z"/>
  <path class="st3" d="M261.04,334.12c-2.08,2.1-5.65-.74-3.65-3.29,2.18-2.77,5.91,1,3.65,3.29Z"/>
  <path class="st11" d="M237.79,265.44c2.7-.52,4.14,3.3,1.72,4.6-3.34,1.8-5.22-3.93-1.72-4.6Z"/>
  <path class="st8" d="M178.29,273.11c3.54-.82,4.3,4.09,1.33,4.69-3.49.71-3.88-4.1-1.33-4.69Z"/>
  <path class="st4" d="M165.1,322.98c4.04-1.2,3.62,5.36-.11,3.84-1.7-.69-1.42-3.39.11-3.84Z"/>
  <path class="st3" d="M251.46,339.04c3.17-.7,3.62,4.1.65,4.27-2.53.14-3.14-3.72-.65-4.27Z"/>
  <path class="st11" d="M248.57,269.77c2.71-.13,3.02,4.14.2,4.26s-2.97-4.13-.2-4.26Z"/>
  <path class="st8" d="M185.49,265.2c3.83-1.13,4.03,4.83.24,3.97-1.89-.42-1.73-3.54-.24-3.97Z"/>
  <path class="st4" d="M164.39,314.36c1.04,1.04-.67,2.85-1.73,1.61-1.18-1.38.82-2.52,1.73-1.61Z"/>
  <path class="st3" d="M244.27,347.33c-1.18,1.03-2.72-.92-1.52-1.88,1.33-1.06,2.49,1.04,1.52,1.88Z"/>
  <path class="st8" d="M194.61,260.39c1.62-.23,1.84,2.26.16,2.36-1.35.07-1.54-2.16-.16-2.36Z"/>
  <path class="st11" d="M255.91,278.75c-.8-.8-.03-2.6,1.37-1.98,1.8.79-.15,3.2-1.37,1.98Z"/>
  <path class="st2" d="M199.39,279.86c1.05-.03,2.3.75,2.2,1.89-.14,1.59-5.2,7.4-6.39,9.46-7.87,13.66-7.02,45.69,13.5,47.08,15.76,1.07,22.03-11.09,26.7-23.93,2.42-6.67,4.93-15.51-.54-21.4-7.85-8.45-23.4-4.73-27.51,5.59-3.41,8.57-.05,25.64,12.34,20.73,2.49-.99,7.37-4.31,8.21-6.9.65-2.01-.04-7.32-2.45-7.86-2.6-.58-7.29,1.22-9.59,2.55-.92.53-2.85,2.27-3.62,2.4-1.21.2-2.04-.91-2.19-2.02-1.19-8.27,14.4-13.11,18.73-5.3,2.76,4.98,2.96,11.6-.23,16.4-4.1,6.17-18,13.87-25.08,9.85-5.04-2.86-6.3-15.21-5.92-20.46,2.15-29.1,54.99-32.62,48.58,3.48-2.3,12.98-8.13,20.93-20.11,26.41-14.25,6.52-28.01,4.76-36.73-8.93-8.06-12.66-6.82-26.5.3-39.22,1.65-2.95,6.13-9.71,9.79-9.83ZM199.4,281.04c-1.93,0-5.35,3.97-6.46,5.51-10.99,15.26-11.36,37.7,4.63,49.67,11.97,8.96,33.98,1.3,41.77-10.24,4.17-6.17,7.06-16.84,5.87-24.2-3.64-22.52-39.14-18.52-45.34.82-2.01,6.26-1.37,16.26,1.78,22.09,4.66,8.61,20.46-.12,24.91-5.49,3.96-4.78,4.26-12.73.37-17.62-3.84-4.84-16.74-1.07-15.7,5.62.36,2.36,2.34-.22,3.42-.87,2.68-1.62,8.13-3.76,11.21-2.96,2.34.61,3.69,5.04,3.59,7.19-.19,4.36-5.61,8.39-9.36,9.84-13.21,5.11-17.66-12.24-14.09-21.76,3.79-10.1,17.55-14.95,26.65-9,10.18,6.66,6.68,18.14,2.92,27.52-5.04,12.58-11.4,23.37-26.87,22.32-19.65-1.34-22.01-28.28-17.21-42.88,1.89-5.76,5.4-9.85,8.85-14.67.27-.54-.44-.9-.94-.9Z"/>
  <path class="st4" d="M199.4,281.04c.5,0,1.21.36.94.9-3.45,4.82-6.96,8.91-8.85,14.67-4.8,14.6-2.44,41.54,17.21,42.88,15.48,1.05,21.83-9.73,26.87-22.32,3.76-9.38,7.26-20.86-2.92-27.52-9.09-5.95-22.86-1.1-26.65,9-3.57,9.52.88,26.87,14.09,21.76,3.75-1.45,9.18-5.48,9.36-9.84.09-2.15-1.26-6.58-3.59-7.19-3.08-.8-8.53,1.34-11.21,2.96-1.07.65-3.05,3.23-3.42.87-1.04-6.7,11.86-10.47,15.7-5.62,3.89,4.9,3.59,12.84-.37,17.62-4.45,5.37-20.25,14.1-24.91,5.49-3.15-5.83-3.79-15.84-1.78-22.09,6.2-19.34,41.7-23.34,45.34-.82,1.19,7.36-1.7,18.03-5.87,24.2-7.8,11.53-29.8,19.2-41.77,10.24-15.99-11.97-15.62-34.41-4.63-49.67,1.11-1.54,4.53-5.5,6.46-5.51Z"/>
</svg>